<?xml version="1.0" encoding="utf-8"?>
<!-- Generator: Adobe Illustrator 15.0.0, SVG Export Plug-In . SVG Version: 6.00 Build 0)  -->
<!DOCTYPE svg PUBLIC "-//W3C//DTD SVG 1.1//EN" "http://www.w3.org/Graphics/SVG/1.1/DTD/svg11.dtd">
<svg version="1.1" id="Calque_1" xmlns="http://www.w3.org/2000/svg" xmlns:xlink="http://www.w3.org/1999/xlink" x="0px" y="0px"
	 width="300px" height="300px" viewBox="0 0 300 300" enable-background="new 0 0 300 300" xml:space="preserve">
<g>
	<path fill="#773982" d="M81.512,214.238c1.142,0,2.036,0.292,2.695,0.878c0.658,0.584,0.989,1.351,0.989,2.296
		c0,0.952-0.331,1.719-0.989,2.296c-0.659,0.577-1.553,0.868-2.695,0.868h-1.678v2.205l1.063,0.205v1.196h-4.116v-1.196l1.057-0.205
		v-7.137l-1.057-0.204v-1.202h1.057H81.512z M79.834,219.038h1.678c0.558,0,0.976-0.15,1.263-0.454
		c0.284-0.303,0.425-0.688,0.425-1.156c0-0.479-0.142-0.874-0.425-1.186c-0.287-0.312-0.706-0.467-1.263-0.467h-1.678V219.038z"/>
	<path fill="#773982" d="M90.295,214.238c1.131,0,2.016,0.257,2.657,0.773s0.962,1.231,0.962,2.143c0,0.501-0.134,0.935-0.401,1.305
		c-0.27,0.368-0.662,0.665-1.182,0.895c0.587,0.172,1.01,0.46,1.266,0.864c0.26,0.402,0.385,0.901,0.385,1.498v0.505
		c0,0.219,0.047,0.388,0.132,0.509c0.084,0.122,0.229,0.193,0.429,0.217l0.247,0.034v1.202h-1.03c-0.651,0-1.107-0.176-1.374-0.527
		c-0.263-0.351-0.395-0.804-0.395-1.359v-0.567c0-0.48-0.128-0.862-0.385-1.136c-0.26-0.277-0.622-0.421-1.09-0.435h-1.631v2.623
		l1.064,0.205v1.196h-4.116v-1.196l1.057-0.205v-7.137l-1.057-0.204v-1.202h1.057H90.295z M88.883,218.621h1.377
		c0.558,0,0.973-0.118,1.25-0.354c0.28-0.236,0.418-0.578,0.418-1.023s-0.138-0.804-0.415-1.07
		c-0.273-0.267-0.682-0.397-1.219-0.397h-1.412V218.621z"/>
	<path fill="#773982" d="M95.441,215.44v-1.202h4.116v1.202l-1.063,0.204v7.137l1.063,0.205v1.196h-4.116v-1.196l1.063-0.205v-7.137
		L95.441,215.44z"/>
	<path fill="#773982" d="M109.909,216.824l-0.041-0.004l-2.661,7.362h-1.34l-2.651-7.336l-0.041,0.007l0.193,4.363v1.564
		l1.063,0.205v1.196h-4.116v-1.196l1.057-0.205v-7.137l-1.057-0.204v-1.202h1.057h2.604l2.532,7.327h0.041l2.556-7.327h3.674v1.202
		l-1.067,0.204v7.137l1.067,0.205v1.196h-4.119v-1.196l1.06-0.205v-1.564L109.909,216.824z"/>
	<path fill="#773982" d="M113.387,222.986l0.709-0.104l3.025-8.645h2.043l3.005,8.645l0.709,0.104v1.196h-3.387v-1.196l0.689-0.123
		l-0.436-1.365h-3.225l-0.439,1.365l0.692,0.123v1.196h-3.387V222.986z M116.993,220.029h2.279l-1.118-3.505h-0.044L116.993,220.029
		z"/>
	<path fill="#773982" d="M128,214.238c1.128,0,2.016,0.257,2.658,0.773c0.641,0.517,0.962,1.231,0.962,2.143
		c0,0.501-0.135,0.935-0.402,1.305c-0.271,0.368-0.662,0.665-1.182,0.895c0.588,0.172,1.01,0.46,1.267,0.864
		c0.257,0.402,0.385,0.901,0.385,1.498v0.505c0,0.219,0.043,0.388,0.131,0.509c0.084,0.122,0.229,0.193,0.429,0.217l0.247,0.034
		v1.202h-1.033c-0.648,0-1.108-0.176-1.371-0.527c-0.264-0.351-0.399-0.804-0.399-1.359v-0.567c0-0.48-0.125-0.862-0.385-1.136
		c-0.256-0.277-0.618-0.421-1.087-0.435h-1.634v2.623l1.066,0.205v1.196h-4.119v-1.196l1.06-0.205v-7.137l-1.06-0.204v-1.202h1.06
		H128z M126.586,218.621h1.38c0.554,0,0.973-0.118,1.25-0.354s0.415-0.578,0.415-1.023s-0.134-0.804-0.412-1.07
		c-0.273-0.267-0.682-0.397-1.219-0.397h-1.414V218.621z"/>
	<path fill="#773982" d="M136.094,215.44l-0.813,0.114l1.543,3.266h0.044l1.543-3.266l-0.807-0.114v-1.202h3.765v1.202l-0.847,0.135
		l-2.705,5.108v2.098l1.064,0.205v1.196h-4.116v-1.196l1.063-0.205v-2.199l-2.657-5.007l-0.841-0.135v-1.202h3.765V215.44z"/>
	<path fill="#773982" d="M152.997,217.412h-1.495l-0.261-1.364c-0.171-0.109-0.425-0.206-0.756-0.286
		c-0.334-0.084-0.686-0.126-1.06-0.126c-0.543,0-0.966,0.117-1.267,0.347c-0.297,0.23-0.445,0.527-0.445,0.892
		c0,0.336,0.155,0.612,0.466,0.828c0.311,0.217,0.851,0.446,1.617,0.688c1.094,0.306,1.928,0.707,2.496,1.209
		c0.563,0.502,0.851,1.16,0.851,1.973c0,0.852-0.337,1.524-1.013,2.017c-0.672,0.489-1.56,0.736-2.664,0.736
		c-0.787,0-1.496-0.125-2.134-0.375c-0.635-0.25-1.162-0.598-1.587-1.038v-2.075h1.543l0.213,1.413
		c0.199,0.164,0.473,0.299,0.817,0.405c0.345,0.107,0.726,0.16,1.148,0.16c0.547,0,0.962-0.111,1.249-0.334
		c0.284-0.223,0.426-0.52,0.426-0.896c0-0.381-0.136-0.688-0.406-0.921c-0.273-0.233-0.746-0.45-1.425-0.655
		c-1.178-0.341-2.073-0.746-2.677-1.216c-0.604-0.47-0.909-1.11-0.909-1.927c0-0.805,0.341-1.463,1.023-1.977
		c0.686-0.514,1.543-0.774,2.576-0.79c0.763,0,1.462,0.118,2.09,0.35c0.628,0.231,1.154,0.542,1.583,0.929V217.412z"/>
	<path fill="#773982" d="M162.073,217.591h-1.481l-0.203-1.325c-0.196-0.195-0.442-0.349-0.742-0.464
		c-0.298-0.115-0.648-0.172-1.055-0.172c-0.867,0-1.532,0.313-1.998,0.943c-0.466,0.628-0.699,1.447-0.699,2.46v0.347
		c0,1.011,0.229,1.833,0.695,2.466c0.463,0.633,1.122,0.949,1.966,0.949c0.395,0,0.753-0.058,1.077-0.171s0.577-0.269,0.756-0.464
		l0.203-1.324h1.481v1.965c-0.398,0.466-0.912,0.834-1.533,1.111c-0.621,0.273-1.315,0.412-2.086,0.412
		c-1.334,0-2.428-0.463-3.278-1.386c-0.852-0.924-1.277-2.109-1.277-3.559v-0.334c0-1.445,0.422-2.63,1.271-3.559
		c0.848-0.928,1.941-1.394,3.285-1.394c0.771,0,1.465,0.141,2.083,0.422c0.618,0.278,1.132,0.647,1.536,1.108V217.591z"/>
	<path fill="#773982" d="M162.988,215.44v-1.202h4.12v1.202l-1.063,0.204v2.868h4.055v-2.868l-1.066-0.204v-1.202h1.066h1.985h1.067
		v1.202l-1.067,0.204v7.137l1.067,0.205v1.196h-4.119v-1.196l1.066-0.205v-2.732h-4.055v2.732l1.063,0.205v1.196h-4.12v-1.196
		l1.061-0.205v-7.137L162.988,215.44z"/>
	<path fill="#773982" d="M183.015,219.284c0,1.457-0.418,2.661-1.249,3.613c-0.834,0.952-1.925,1.427-3.272,1.427
		c-1.344,0-2.427-0.475-3.254-1.427c-0.828-0.952-1.24-2.156-1.24-3.613v-0.149c0-1.449,0.412-2.651,1.236-3.606
		s1.908-1.435,3.252-1.435c1.347,0,2.438,0.479,3.271,1.435c0.838,0.955,1.256,2.157,1.256,3.606V219.284z M181.026,219.121
		c0-1.03-0.213-1.864-0.642-2.508c-0.429-0.641-1.06-0.962-1.897-0.962c-0.841,0-1.466,0.319-1.877,0.956
		c-0.412,0.636-0.619,1.475-0.619,2.514v0.163c0,1.047,0.21,1.891,0.625,2.531c0.419,0.64,1.043,0.958,1.877,0.958
		c0.842,0,1.473-0.318,1.898-0.958c0.422-0.641,0.635-1.484,0.635-2.531V219.121z"/>
	<path fill="#773982" d="M192.901,219.284c0,1.457-0.415,2.661-1.246,3.613c-0.834,0.952-1.925,1.427-3.271,1.427
		c-1.344,0-2.428-0.475-3.255-1.427c-0.828-0.952-1.239-2.156-1.239-3.613v-0.149c0-1.449,0.411-2.651,1.235-3.606
		s1.908-1.435,3.252-1.435c1.348,0,2.438,0.479,3.272,1.435c0.837,0.955,1.252,2.157,1.252,3.606V219.284z M190.916,219.121
		c0-1.03-0.213-1.864-0.642-2.508c-0.429-0.641-1.06-0.962-1.897-0.962c-0.84,0-1.465,0.319-1.877,0.956
		c-0.412,0.636-0.618,1.475-0.618,2.514v0.163c0,1.047,0.209,1.891,0.624,2.531c0.42,0.64,1.044,0.958,1.878,0.958
		c0.841,0,1.472-0.318,1.897-0.958c0.422-0.641,0.635-1.484,0.635-2.531V219.121z"/>
	<path fill="#773982" d="M193.701,224.183v-1.196l1.061-0.205v-7.137l-1.061-0.204v-1.202h1.061h1.996h1.063v1.202l-1.063,0.204
		v7.008h2.806l0.095-1.251h1.522v2.781H193.701z"/>
	<path fill="#773982" d="M213.475,217.591h-1.482l-0.205-1.325c-0.196-0.195-0.442-0.349-0.74-0.464
		c-0.297-0.115-0.648-0.172-1.053-0.172c-0.868,0-1.533,0.313-1.999,0.943c-0.467,0.628-0.702,1.447-0.702,2.46v0.347
		c0,1.011,0.232,1.833,0.698,2.466c0.463,0.633,1.121,0.949,1.965,0.949c0.393,0,0.754-0.058,1.077-0.171
		c0.324-0.113,0.578-0.269,0.754-0.464l0.205-1.324h1.482v1.965c-0.397,0.466-0.911,0.834-1.532,1.111
		c-0.621,0.273-1.317,0.412-2.088,0.412c-1.333,0-2.427-0.463-3.278-1.386c-0.85-0.924-1.275-2.109-1.275-3.559v-0.334
		c0-1.445,0.422-2.63,1.27-3.559c0.848-0.928,1.941-1.394,3.284-1.394c0.771,0,1.467,0.141,2.084,0.422
		c0.618,0.278,1.131,0.647,1.536,1.108V217.591z"/>
	<path fill="#773982" d="M214.391,224.183v-1.196l1.06-0.205v-7.137l-1.06-0.204v-1.202h1.06h1.992h1.066v1.202l-1.066,0.204v7.008
		h2.81l0.094-1.251h1.523v2.781H214.391z"/>
	<path fill="#773982" d="M222.483,222.986l0.709-0.104l3.026-8.645h2.042l3.006,8.645l0.708,0.104v1.196h-3.387v-1.196l0.689-0.123
		l-0.436-1.365h-3.225l-0.436,1.365l0.688,0.123v1.196h-3.387V222.986z M226.09,220.029h2.282l-1.12-3.505h-0.041L226.09,220.029z"
		/>
	<path fill="#773982" d="M240.184,217.412h-1.493l-0.259-1.364c-0.177-0.109-0.426-0.206-0.76-0.286
		c-0.331-0.084-0.686-0.126-1.058-0.126c-0.547,0-0.969,0.117-1.27,0.347c-0.297,0.23-0.445,0.527-0.445,0.892
		c0,0.336,0.155,0.612,0.466,0.828c0.313,0.217,0.851,0.446,1.617,0.688c1.098,0.306,1.929,0.707,2.496,1.209
		s0.851,1.16,0.851,1.973c0,0.852-0.339,1.524-1.01,2.017c-0.675,0.489-1.563,0.736-2.665,0.736c-0.79,0-1.499-0.125-2.134-0.375
		s-1.164-0.598-1.59-1.038v-2.075h1.547l0.209,1.413c0.202,0.164,0.473,0.299,0.817,0.405c0.344,0.107,0.727,0.16,1.15,0.16
		c0.548,0,0.96-0.111,1.246-0.334c0.284-0.223,0.426-0.52,0.426-0.896c0-0.381-0.135-0.688-0.404-0.921
		c-0.271-0.233-0.746-0.45-1.425-0.655c-1.179-0.341-2.07-0.746-2.679-1.216c-0.604-0.47-0.908-1.11-0.908-1.927
		c0-0.805,0.345-1.463,1.027-1.977c0.681-0.514,1.539-0.774,2.572-0.79c0.767,0,1.462,0.118,2.09,0.35s1.158,0.542,1.584,0.929
		V217.412z"/>
	<path fill="#773982" d="M248.666,217.412h-1.493l-0.26-1.364c-0.176-0.109-0.426-0.206-0.76-0.286
		c-0.331-0.084-0.686-0.126-1.057-0.126c-0.547,0-0.969,0.117-1.27,0.347c-0.298,0.23-0.445,0.527-0.445,0.892
		c0,0.336,0.155,0.612,0.466,0.828c0.313,0.217,0.85,0.446,1.616,0.688c1.098,0.306,1.929,0.707,2.496,1.209
		c0.566,0.502,0.851,1.16,0.851,1.973c0,0.852-0.338,1.524-1.01,2.017c-0.675,0.489-1.563,0.736-2.664,0.736
		c-0.79,0-1.499-0.125-2.134-0.375s-1.165-0.598-1.59-1.038v-2.075h1.546l0.21,1.413c0.202,0.164,0.472,0.299,0.816,0.405
		c0.344,0.107,0.726,0.16,1.151,0.16c0.548,0,0.959-0.111,1.246-0.334c0.283-0.223,0.426-0.52,0.426-0.896
		c0-0.381-0.135-0.688-0.405-0.921c-0.271-0.233-0.746-0.45-1.425-0.655c-1.179-0.341-2.07-0.746-2.678-1.216
		c-0.604-0.47-0.908-1.11-0.908-1.927c0-0.805,0.345-1.463,1.026-1.977s1.54-0.774,2.573-0.79c0.766,0,1.462,0.118,2.09,0.35
		s1.158,0.542,1.584,0.929V217.412z"/>
	<path fill="#773982" d="M256.017,219.81h-3.366v2.843h3.207l0.091-1.188h1.517v2.719h-7.867v-1.196l1.057-0.205v-7.137
		l-1.057-0.204v-1.202h1.057h6.797v2.725h-1.532l-0.088-1.188h-3.181v2.498h3.366V219.81z"/>
	<path fill="#773982" d="M266.081,217.412h-1.495l-0.26-1.364c-0.172-0.109-0.426-0.206-0.757-0.286
		c-0.334-0.084-0.685-0.126-1.061-0.126c-0.543,0-0.969,0.117-1.266,0.347c-0.301,0.23-0.446,0.527-0.446,0.892
		c0,0.336,0.155,0.612,0.466,0.828c0.311,0.217,0.852,0.446,1.614,0.688c1.099,0.306,1.933,0.707,2.499,1.209
		c0.564,0.502,0.847,1.16,0.847,1.973c0,0.852-0.334,1.524-1.009,2.017c-0.675,0.489-1.563,0.736-2.664,0.736
		c-0.787,0-1.5-0.125-2.134-0.375c-0.635-0.25-1.165-0.598-1.587-1.038v-2.075h1.542l0.213,1.413
		c0.199,0.164,0.474,0.299,0.818,0.405c0.34,0.107,0.726,0.16,1.147,0.16c0.548,0,0.962-0.111,1.246-0.334
		c0.287-0.223,0.429-0.52,0.429-0.896c0-0.381-0.136-0.688-0.408-0.921c-0.271-0.233-0.743-0.45-1.422-0.655
		c-1.178-0.341-2.073-0.746-2.678-1.216c-0.604-0.47-0.908-1.11-0.908-1.927c0-0.805,0.341-1.463,1.023-1.977
		c0.685-0.514,1.542-0.774,2.575-0.79c0.764,0,1.463,0.118,2.091,0.35s1.155,0.542,1.583,0.929V217.412z"/>
</g>
<path fill="#773982" d="M42.388,208.188c-6.162,0-11.156,4.21-11.156,9.403c0,3.755,2.614,6.998,6.392,8.506
	c-0.396,1.043-1.05,2.279-2.165,3.484c0,0,2.894-0.464,5.342-2.681c0.52,0.061,1.047,0.095,1.587,0.095
	c6.159,0,11.156-4.211,11.156-9.404S48.547,208.188,42.388,208.188z"/>
<linearGradient id="SVGID_1_" gradientUnits="userSpaceOnUse" x1="72.4307" y1="229.6602" x2="46.5517" y2="205.2494">
	<stop  offset="0" style="stop-color:#EC6A30"/>
	<stop  offset="1" style="stop-color:#F5A133"/>
</linearGradient>
<path fill="url(#SVGID_1_)" d="M72.311,217.838c0-5.197-5.558-9.405-12.416-9.405s-12.419,4.208-12.419,9.405
	c0,5.189,5.561,9.401,12.419,9.401c0.996,0,1.969-0.089,2.894-0.262c2.478,2.357,5.521,2.849,5.521,2.849
	c-1.239-1.33-1.915-2.703-2.29-3.811C69.779,224.397,72.311,221.343,72.311,217.838z"/>
<path fill="#FFFFFF" d="M49.594,217.481l-5.22-0.542l5.777-3.039c0.166-0.09,0.229-0.294,0.142-0.461
	c-0.088-0.167-0.294-0.231-0.459-0.144l-6.476,3.411l0.392-3.756c0.047-0.468-0.294-0.886-0.76-0.936
	c-0.486-0.043-0.888,0.293-0.935,0.761l-0.388,3.758l-5.643-4.67c-0.145-0.119-0.358-0.102-0.479,0.044s-0.098,0.362,0.044,0.479
	l5.031,4.164l-5.217-0.541c-0.479-0.046-0.888,0.29-0.936,0.758s0.294,0.887,0.76,0.934l5.213,0.541l-5.774,3.038
	c-0.165,0.09-0.229,0.294-0.142,0.461c0.061,0.117,0.179,0.183,0.3,0.183c0.054,0,0.108-0.012,0.159-0.039l6.479-3.411l-0.388,3.76
	c-0.051,0.466,0.291,0.884,0.756,0.935c0.03,0.002,0.061,0.004,0.091,0.004c0.429,0,0.8-0.326,0.844-0.764l0.388-3.758l5.643,4.666
	c0.064,0.055,0.138,0.078,0.216,0.078c0.098,0,0.196-0.041,0.263-0.122c0.118-0.145,0.098-0.36-0.047-0.479l-5.024-4.161
	l5.214,0.541c0.03,0.004,0.058,0.005,0.087,0.005c0.432,0,0.8-0.325,0.844-0.763C50.401,217.949,50.06,217.53,49.594,217.481z"/>
<g>
	<polygon fill="#FFFFFF" points="59.021,213.924 60.365,216.195 62.992,216.379 61.246,218.353 61.888,220.91 59.467,219.861 
		57.235,221.26 57.485,218.634 55.462,216.943 58.035,216.369 	"/>
	<path fill="#FFFFFF" d="M57.235,221.751c-0.091,0-0.179-0.024-0.257-0.074c-0.159-0.098-0.25-0.276-0.233-0.462l0.226-2.371
		l-1.823-1.526c-0.142-0.119-0.206-0.311-0.162-0.493c0.044-0.179,0.189-0.32,0.371-0.36l2.32-0.518l0.892-2.205
		c0.067-0.173,0.229-0.291,0.415-0.305c0.199-0.021,0.365,0.079,0.463,0.237l1.209,2.05l2.37,0.165
		c0.186,0.014,0.351,0.131,0.422,0.303c0.067,0.174,0.037,0.37-0.088,0.512l-1.573,1.779l0.578,2.31
		c0.044,0.179-0.021,0.371-0.159,0.491c-0.142,0.12-0.341,0.15-0.513,0.076l-2.181-0.945l-2.016,1.261
		C57.414,221.727,57.326,221.751,57.235,221.751z M56.54,217.204l1.259,1.056c0.125,0.103,0.189,0.262,0.172,0.422l-0.155,1.636
		l1.392-0.871c0.138-0.086,0.311-0.098,0.456-0.035l1.51,0.655l-0.402-1.596c-0.037-0.157,0.003-0.322,0.112-0.444l1.087-1.229
		l-1.638-0.115c-0.162-0.01-0.307-0.1-0.392-0.238l-0.834-1.416l-0.614,1.523c-0.061,0.151-0.193,0.259-0.348,0.297L56.54,217.204z"
		/>
</g>
<linearGradient id="SVGID_2_" gradientUnits="userSpaceOnUse" x1="28.7334" y1="144.8433" x2="69.0105" y2="76.1663">
	<stop  offset="0" style="stop-color:#E9610B"/>
	<stop  offset="1" style="stop-color:#E98012"/>
</linearGradient>
<path fill="url(#SVGID_2_)" d="M85.676,74.437v15.334h-8.854l-0.473-6.442H65.757v40.547l6.166,1.187v6.915H48.051v-6.915
	l6.169-1.187V83.329H43.665l-0.473,6.442h-8.812V74.437H85.676z"/>
<linearGradient id="SVGID_3_" gradientUnits="userSpaceOnUse" x1="28.7334" y1="144.8438" x2="69.0107" y2="76.1664">
	<stop  offset="0" style="stop-color:#E9610B"/>
	<stop  offset="1" style="stop-color:#E98012"/>
</linearGradient>
<path fill="url(#SVGID_3_)" d="M72.504,132.559H47.47v-7.976l6.169-1.187V83.91h-9.434l-0.473,6.442h-9.934V73.856h52.458v16.496
	h-9.975l-0.473-6.442h-9.471v39.487l6.166,1.187V132.559z M48.631,131.397h22.71v-5.854l-6.165-1.187V82.748H76.89l0.473,6.443
	h7.732V75.02H34.959v14.171h7.692l0.473-6.443H54.8v41.608l-6.169,1.187V131.397z"/>
<linearGradient id="SVGID_4_" gradientUnits="userSpaceOnUse" x1="74.4722" y1="171.666" x2="114.7485" y2="102.9903">
	<stop  offset="0" style="stop-color:#E9610B"/>
	<stop  offset="1" style="stop-color:#E98012"/>
</linearGradient>
<path fill="url(#SVGID_4_)" d="M129.007,106.685h-19.486v16.44h18.574l0.517-6.876h8.772v15.729H91.858v-6.915l6.125-1.187V82.58
	l-6.125-1.187v-6.956h6.125h39.323v15.769h-8.854l-0.513-6.876h-18.419v14.465h19.486V106.685z"/>
<linearGradient id="SVGID_5_" gradientUnits="userSpaceOnUse" x1="74.4736" y1="171.666" x2="114.7499" y2="102.9904">
	<stop  offset="0" style="stop-color:#E9610B"/>
	<stop  offset="1" style="stop-color:#E98012"/>
</linearGradient>
<path fill="url(#SVGID_5_)" d="M137.965,132.559H91.277v-7.976l6.125-1.187V83.059l-6.125-1.187v-8.016h46.61v16.93h-9.971
	l-0.517-6.876h-17.298v13.303h19.486v10.052h-19.486v15.279h17.457l0.513-6.876h9.893V132.559z M92.439,131.397h44.365V116.83
	h-7.655l-0.514,6.876H108.94v-17.602h19.486v-7.729H108.94V82.748h19.537l0.513,6.876h7.736V75.02H92.439v5.894l6.125,1.185v42.258
	l-6.125,1.187V131.397z"/>
<linearGradient id="SVGID_6_" gradientUnits="userSpaceOnUse" x1="124.6387" y1="201.0879" x2="164.9146" y2="132.4128">
	<stop  offset="0" style="stop-color:#E9610B"/>
	<stop  offset="1" style="stop-color:#E98012"/>
</linearGradient>
<path fill="url(#SVGID_6_)" d="M143.766,125.063l4.113-0.594l17.504-50.032h11.818l17.39,50.032l4.108,0.594v6.915h-19.601v-6.915
	l3.99-0.713l-2.528-7.904h-18.652l-2.528,7.904l3.99,0.713v6.915h-19.604V125.063z M164.633,107.951h13.203l-6.483-20.275h-0.24
	L164.633,107.951z"/>
<linearGradient id="SVGID_7_" gradientUnits="userSpaceOnUse" x1="124.7007" y1="201.125" x2="164.9775" y2="132.4485">
	<stop  offset="0" style="stop-color:#E9610B"/>
	<stop  offset="1" style="stop-color:#E98012"/>
</linearGradient>
<path fill="url(#SVGID_7_)" d="M199.28,132.559h-20.763v-7.982l3.815-0.682l-2.198-6.868H162.33l-2.194,6.868l3.815,0.682v7.982
	h-20.766v-7.999l4.261-0.616l17.524-50.088h12.645l17.407,50.09l4.258,0.614V132.559z M179.679,131.397h18.439v-5.831l-3.961-0.574
	l-0.118-0.333l-17.25-49.641h-10.994l-17.487,49.975l-3.961,0.572v5.831h18.439v-5.848l-4.163-0.743l2.86-8.941h19.499l2.863,8.941
	l-4.167,0.743V131.397z M178.629,108.532h-14.793l6.854-21.436h1.084L178.629,108.532z M165.431,107.368h11.607l-5.804-18.155
	L165.431,107.368z"/>
<linearGradient id="SVGID_8_" gradientUnits="userSpaceOnUse" x1="66.1299" y1="166.7715" x2="106.4057" y2="98.0967">
	<stop  offset="0" style="stop-color:#E9610B"/>
	<stop  offset="1" style="stop-color:#E98012"/>
</linearGradient>
<path fill="url(#SVGID_8_)" d="M82.161,165.1h-8.58l-1.186-7.669c-1.131-1.131-2.562-2.025-4.288-2.688
	c-1.722-0.655-3.758-0.986-6.104-0.986c-5.004,0-8.86,1.817-11.559,5.453c-2.701,3.637-4.051,8.378-4.051,14.226v2.02
	c0,5.848,1.344,10.603,4.031,14.263c2.688,3.663,6.479,5.497,11.383,5.497c2.265,0,4.339-0.331,6.223-0.989
	c1.884-0.658,3.34-1.554,4.366-2.688l1.186-7.668h8.58v11.383c-2.323,2.688-5.278,4.828-8.877,6.422
	c-3.596,1.594-7.621,2.391-12.071,2.391c-7.719,0-14.043-2.674-18.97-8.022s-7.391-12.21-7.391-20.587v-1.938
	c0-8.354,2.451-15.214,7.351-20.59c4.903-5.372,11.237-8.06,19.01-8.06c4.45,0,8.468,0.811,12.054,2.428
	c3.583,1.621,6.547,3.761,8.894,6.422V165.1z"/>
<linearGradient id="SVGID_9_" gradientUnits="userSpaceOnUse" x1="66.1436" y1="166.7812" x2="106.4196" y2="98.106">
	<stop  offset="0" style="stop-color:#E9610B"/>
	<stop  offset="1" style="stop-color:#E98012"/>
</linearGradient>
<path fill="url(#SVGID_9_)" d="M61.213,204.646c-7.854,0-14.381-2.763-19.396-8.208c-5.007-5.438-7.546-12.493-7.546-20.982v-1.938
	c0-8.465,2.526-15.524,7.502-20.981c4.994-5.474,11.535-8.249,19.439-8.249c4.514,0,8.65,0.834,12.293,2.481
	c3.64,1.645,6.696,3.853,9.09,6.564l0.145,0.166v12.182h-9.657l-1.232-7.968c-1.047-1.007-2.377-1.823-3.951-2.425
	c-1.651-0.632-3.636-0.949-5.898-0.949c-4.789,0-8.522,1.756-11.092,5.221c-2.614,3.515-3.937,8.185-3.937,13.877v2.02
	c0,5.692,1.32,10.376,3.92,13.921c2.593,3.536,6.162,5.258,10.913,5.258c2.188,0,4.217-0.324,6.03-0.959
	c1.715-0.598,3.062-1.405,4.011-2.4l1.236-7.985h9.657v12.179L82.6,195.63c-2.368,2.746-5.423,4.957-9.08,6.574
	C69.867,203.825,65.727,204.646,61.213,204.646z M61.213,145.447c-7.564,0-13.817,2.647-18.578,7.871
	c-4.778,5.237-7.202,12.034-7.202,20.198v1.938c0,8.185,2.435,14.981,7.236,20.195c4.788,5.196,11.028,7.833,18.544,7.833
	c4.349,0,8.33-0.786,11.838-2.339c3.424-1.521,6.294-3.573,8.529-6.108V184.45h-7.5l-1.138,7.348l-0.115,0.132
	c-1.087,1.198-2.637,2.153-4.605,2.842c-1.938,0.679-4.096,1.023-6.415,1.023c-5.075,0-9.063-1.931-11.852-5.732
	c-2.749-3.748-4.143-8.664-4.143-14.607v-2.02c0-5.945,1.401-10.848,4.167-14.569c2.803-3.775,6.848-5.69,12.024-5.69
	c2.404,0,4.527,0.345,6.314,1.027c1.796,0.686,3.309,1.634,4.491,2.819l0.131,0.132l1.142,7.364h7.5v-10.582
	c-2.262-2.513-5.139-4.568-8.553-6.112C69.536,146.248,65.558,145.447,61.213,145.447z"/>
<linearGradient id="SVGID_10_" gradientUnits="userSpaceOnUse" x1="108.4375" y1="191.582" x2="148.7139" y2="122.9062">
	<stop  offset="0" style="stop-color:#E9610B"/>
	<stop  offset="1" style="stop-color:#E98012"/>
</linearGradient>
<path fill="url(#SVGID_10_)" d="M89.073,152.65v-6.957h23.828v6.957l-6.162,1.185v16.599h23.474v-16.599l-6.166-1.185v-6.957h6.166
	h11.5h6.166v6.957l-6.166,1.185v41.299l6.166,1.185v6.916h-23.832v-6.916l6.166-1.185v-15.806h-23.474v15.806l6.162,1.185v6.916
	H89.073v-6.916l6.125-1.185v-41.299L89.073,152.65z"/>
<linearGradient id="SVGID_11_" gradientUnits="userSpaceOnUse" x1="108.4365" y1="191.583" x2="148.7122" y2="122.9084">
	<stop  offset="0" style="stop-color:#E9610B"/>
	<stop  offset="1" style="stop-color:#E98012"/>
</linearGradient>
<path fill="url(#SVGID_11_)" d="M148.459,203.815h-24.993v-7.976l6.165-1.186v-14.746h-22.312v14.746l6.163,1.186v7.976h-24.99
	v-7.976l6.125-1.186v-40.34l-6.125-1.185v-8.017h24.99v8.017l-6.163,1.185v15.538h22.312v-15.538l-6.165-1.185v-8.017h24.993v8.017
	l-6.165,1.185v40.34l6.165,1.186V203.815z M124.628,202.653h22.67v-5.855l-6.166-1.185v-42.258l6.166-1.185v-5.896h-22.67v5.896
	l6.165,1.185v17.659h-24.635v-17.659l6.163-1.185v-5.896H89.653v5.896l6.125,1.185v42.258l-6.125,1.185v5.855h22.667v-5.855
	l-6.163-1.185v-16.87h24.635v16.87l-6.165,1.185V202.653z"/>
<linearGradient id="SVGID_12_" gradientUnits="userSpaceOnUse" x1="152.9824" y1="217.708" x2="193.2589" y2="149.032">
	<stop  offset="0" style="stop-color:#E9610B"/>
	<stop  offset="1" style="stop-color:#E98012"/>
</linearGradient>
<path fill="url(#SVGID_12_)" d="M192.729,177.943h-19.482v16.438h18.573l0.514-6.874h8.772v15.728H155.58v-6.916l6.129-1.185
	v-41.299l-6.129-1.185v-6.957h6.129h39.32v15.769h-8.854l-0.513-6.875h-18.416v14.465h19.482V177.943z"/>
<linearGradient id="SVGID_13_" gradientUnits="userSpaceOnUse" x1="152.9834" y1="217.709" x2="193.2593" y2="149.034">
	<stop  offset="0" style="stop-color:#E9610B"/>
	<stop  offset="1" style="stop-color:#E98012"/>
</linearGradient>
<path fill="url(#SVGID_13_)" d="M201.688,203.815h-46.688v-7.976l6.129-1.186v-40.34l-6.129-1.185v-8.017h46.611v16.93h-9.972
	l-0.513-6.875h-17.299v13.301h19.483v10.056h-19.483V193.8h17.454l0.517-6.874h9.89V203.815z M156.161,202.653h44.365v-14.567
	h-7.651l-0.518,6.875h-19.691v-17.599h19.482v-7.729h-19.482v-15.626h19.536l0.514,6.874h7.732v-14.607h-44.287v5.896l6.129,1.185
	v42.258l-6.129,1.185V202.653z"/>
<linearGradient id="SVGID_14_" gradientUnits="userSpaceOnUse" x1="196.209" y1="243.0576" x2="236.4845" y2="174.3833">
	<stop  offset="0" style="stop-color:#E9610B"/>
	<stop  offset="1" style="stop-color:#E98012"/>
</linearGradient>
<path fill="url(#SVGID_14_)" d="M236.357,145.694c6.53,0,11.656,1.496,15.374,4.487c3.714,2.989,5.571,7.119,5.571,12.389
	c0,2.897-0.776,5.413-2.333,7.547c-1.553,2.138-3.832,3.859-6.838,5.179c3.4,1,5.842,2.665,7.331,4.998
	c1.488,2.333,2.235,5.223,2.235,8.674v2.924c0,1.267,0.249,2.249,0.749,2.945c0.503,0.698,1.331,1.114,2.489,1.246l1.425,0.195
	v6.956h-5.971c-3.765,0-6.411-1.014-7.941-3.043c-1.529-2.028-2.293-4.649-2.293-7.864v-3.278c0-2.796-0.742-4.987-2.231-6.581
	c-1.489-1.593-3.589-2.431-6.304-2.509h-9.445v15.175l6.166,1.185v6.916H210.51v-6.916l6.126-1.185v-41.299l-6.126-1.185v-6.957
	h6.126H236.357z M228.176,171.065h7.983c3.214,0,5.625-0.686,7.232-2.057c1.606-1.367,2.41-3.342,2.41-5.926
	c0-2.583-0.796-4.643-2.394-6.186c-1.594-1.54-3.943-2.31-7.051-2.31h-8.182V171.065z"/>
<linearGradient id="SVGID_15_" gradientUnits="userSpaceOnUse" x1="196.21" y1="243.0566" x2="236.4847" y2="174.3837">
	<stop  offset="0" style="stop-color:#E9610B"/>
	<stop  offset="1" style="stop-color:#E98012"/>
</linearGradient>
<path fill="url(#SVGID_15_)" d="M262.941,203.815h-6.551c-3.94,0-6.766-1.101-8.403-3.272c-1.601-2.124-2.412-4.886-2.412-8.216
	v-3.278c0-2.627-0.698-4.71-2.076-6.186c-1.371-1.469-3.355-2.253-5.896-2.323h-8.847v14.114l6.166,1.186v7.976H209.93v-7.976
	l6.125-1.186v-40.34l-6.125-1.185v-8.017h26.428c6.639,0,11.933,1.553,15.738,4.616c3.839,3.09,5.788,7.412,5.788,12.841
	c0,3.012-0.824,5.666-2.445,7.888c-1.371,1.884-3.306,3.478-5.757,4.744c2.819,1.067,4.923,2.671,6.273,4.781
	c1.54,2.414,2.324,5.439,2.324,8.984v2.924c0,1.135,0.215,2.013,0.641,2.607c0.406,0.563,1.084,0.895,2.084,1.007l1.938,0.267
	V203.815z M227.596,179.379h10.025c2.877,0.081,5.136,0.989,6.729,2.69c1.583,1.699,2.387,4.046,2.387,6.979v3.278
	c0,3.069,0.732,5.599,2.178,7.518c1.405,1.863,3.921,2.809,7.476,2.809h5.39v-5.868l-0.922-0.129
	c-1.31-0.148-2.286-0.648-2.88-1.482c-0.575-0.793-0.861-1.897-0.861-3.282v-2.924c0-3.322-0.723-6.135-2.145-8.359
	c-1.4-2.202-3.758-3.8-7.006-4.755l-1.526-0.452l1.459-0.639c2.894-1.27,5.115-2.947,6.601-4.987
	c1.473-2.022,2.223-4.446,2.223-7.205c0-5.062-1.804-9.076-5.355-11.937c-3.593-2.89-8.645-4.359-15.01-4.359h-25.267v5.896
	l6.126,1.185v42.258l-6.126,1.185v5.855h22.67v-5.855l-6.165-1.185V179.379z M236.159,171.646h-8.563v-17.639h8.762
	c3.249,0,5.758,0.83,7.456,2.474c1.705,1.648,2.569,3.87,2.569,6.602c0,2.749-0.878,4.893-2.613,6.372
	C242.061,170.91,239.501,171.646,236.159,171.646z M228.757,170.485h7.402c3.059,0,5.365-0.646,6.857-1.919
	c1.481-1.262,2.204-3.059,2.204-5.483c0-2.441-0.725-4.328-2.215-5.768c-1.476-1.425-3.714-2.147-6.648-2.147h-7.601V170.485z"/>
<radialGradient id="SVGID_16_" cx="242.5771" cy="90.2861" r="65.4904" gradientUnits="userSpaceOnUse">
	<stop  offset="0" style="stop-color:#964893"/>
	<stop  offset="1" style="stop-color:#7A4694"/>
</radialGradient>
<path opacity="0.9" fill="url(#SVGID_16_)" d="M235.824,70.723c-24.639,0.716-33.178,11.131-33.502,25.066
	c-0.312,13.388,6.085,21.966,23.196,24.306c-1.603,2.76-3.879,5.468-7.1,7.853l-2.337,1.732l2.887-0.345
	c0.142-0.02,8.624-1.175,16.376-8.733c0.203-0.005,0.389,0.005,0.595-0.003c19.442-0.677,32.043-11.141,32.043-25.345
	C267.982,83.154,264.332,69.894,235.824,70.723z"/>
<g>
	<g>
		<path fill="#FFFFFF" d="M234.19,100.944c0.115,1.006,0.074,1.935-0.129,2.79c-0.199,0.852-0.642,1.612-1.326,2.279
			c-0.688,0.667-1.676,1.239-2.958,1.719c-1.287,0.481-2.941,0.839-4.974,1.074c-2.033,0.235-3.735,0.265-5.105,0.091
			c-1.371-0.174-2.465-0.508-3.289-0.998c-0.816-0.493-1.425-1.131-1.813-1.916c-0.392-0.785-0.645-1.681-0.76-2.686l-1.29-11.178
			c-0.118-1.004-0.074-1.933,0.125-2.787c0.199-0.853,0.643-1.619,1.331-2.296c0.686-0.676,1.675-1.255,2.972-1.738
			c1.292-0.48,2.958-0.841,4.99-1.074c2.029-0.236,3.724-0.265,5.085-0.091c1.361,0.175,2.451,0.515,3.274,1.018
			c0.821,0.501,1.429,1.146,1.817,1.931c0.388,0.787,0.642,1.682,0.76,2.686L234.19,100.944z M221.14,101.257
			c0.051,0.437,0.257,0.783,0.617,1.04c0.362,0.259,1.135,0.319,2.314,0.181c1.181-0.135,1.917-0.37,2.211-0.701
			c0.293-0.334,0.415-0.719,0.364-1.157l-1.019-8.816c-0.048-0.415-0.251-0.751-0.615-1.008c-0.361-0.258-1.131-0.317-2.312-0.183
			c-1.179,0.137-1.919,0.372-2.209,0.705c-0.293,0.333-0.418,0.708-0.368,1.123L221.14,101.257z"/>
	</g>
	<g>
		<g>
			<path fill="#FFFFFF" d="M233.312,87.651l-1.746,0.201c-0.286,0.032-0.503-0.009-0.648-0.122
				c-0.142-0.113-0.229-0.314-0.263-0.601l-0.105-0.906c-0.033-0.291,0.007-0.503,0.122-0.647c0.111-0.144,0.313-0.233,0.601-0.267
				l1.566-0.181c0.197-0.022,0.342-0.096,0.433-0.222c0.095-0.125,0.129-0.287,0.108-0.483l-0.041-0.339l-2.475,0.284
				c-0.287,0.036-0.503-0.005-0.645-0.12c-0.146-0.113-0.233-0.314-0.267-0.601l-0.389-3.36c-0.031-0.287,0.007-0.503,0.121-0.646
				c0.115-0.144,0.314-0.231,0.604-0.263l4.583-0.532c0.286-0.032,0.502,0.009,0.647,0.122c0.143,0.115,0.229,0.314,0.264,0.603
				l0.492,4.266c0.132,1.15-0.074,2.043-0.621,2.681S234.328,87.533,233.312,87.651z"/>
		</g>
	</g>
</g>
<g>
	<g>
		<path fill="#FFFFFF" stroke="#FFFFFF" stroke-width="0.4322" stroke-miterlimit="10" d="M240.798,107.674
			c-0.371-0.015-0.641-0.109-0.8-0.284c-0.163-0.173-0.236-0.447-0.217-0.824l0.143-3.511c0.017-0.373,0.111-0.642,0.287-0.806
			c0.172-0.157,0.445-0.231,0.816-0.217l2.924,0.121l0.409-9.922l-1.86-0.078c-0.372-0.012-0.642-0.108-0.801-0.282
			c-0.158-0.172-0.232-0.449-0.219-0.824l0.146-3.571c0.017-0.376,0.111-0.643,0.286-0.802c0.172-0.159,0.446-0.231,0.82-0.218
			l10.278,0.42c0.372,0.014,0.642,0.109,0.801,0.284c0.158,0.174,0.232,0.449,0.216,0.822l-0.145,3.576
			c-0.018,0.374-0.112,0.64-0.284,0.802c-0.176,0.159-0.446,0.233-0.824,0.215l-1.624-0.066l-0.404,9.924l2.862,0.116
			c0.375,0.016,0.645,0.11,0.8,0.284c0.163,0.174,0.237,0.451,0.221,0.824l-0.143,3.515c-0.021,0.373-0.111,0.642-0.287,0.801
			c-0.175,0.162-0.448,0.231-0.82,0.217L240.798,107.674z"/>
	</g>
	<circle fill="#FFFFFF" stroke="#FFFFFF" stroke-width="0.4322" stroke-miterlimit="10" cx="248.33" cy="80.582" r="3.719"/>
</g>
</svg>
